<mxfile host="65bd71144e">
    <diagram id="Jw0k9fRooSLBmbNWPfwg" name="Страница 1">
        <mxGraphModel dx="1058" dy="1011" grid="1" gridSize="10" guides="1" tooltips="1" connect="1" arrows="1" fold="1" page="0" pageScale="1" pageWidth="827" pageHeight="1169" math="0" shadow="0">
            <root>
                <mxCell id="0"/>
                <mxCell id="1" parent="0"/>
                <mxCell id="LbXdY1UVprqNfGSTNRS2-1" value="Кластер DataGrid" style="rounded=1;whiteSpace=wrap;html=1;arcSize=3;verticalAlign=top;dashed=1;align=center;fontStyle=1;" parent="1" vertex="1">
                    <mxGeometry x="-160" y="-80" width="220" height="460" as="geometry"/>
                </mxCell>
                <mxCell id="LbXdY1UVprqNfGSTNRS2-11" value="Опциональные компоненты" style="rounded=1;whiteSpace=wrap;html=1;arcSize=3;verticalAlign=top;dashed=1;align=center;fontStyle=1;" parent="1" vertex="1">
                    <mxGeometry x="130" y="-80" width="200" height="430" as="geometry"/>
                </mxCell>
                <mxCell id="LbXdY1UVprqNfGSTNRS2-47" value="Кластер ZooKeeper" style="rounded=1;whiteSpace=wrap;html=1;arcSize=5;verticalAlign=top;dashed=1;align=center;fontStyle=1" parent="1" vertex="1">
                    <mxGeometry x="-140" y="260" width="180" height="108.5" as="geometry"/>
                </mxCell>
                <mxCell id="LbXdY1UVprqNfGSTNRS2-59" value="" style="rounded=1;whiteSpace=wrap;html=1;arcSize=5;verticalAlign=top;strokeColor=#6c8ebf;strokeWidth=2;" parent="1" vertex="1">
                    <mxGeometry x="-95" y="299.5" width="100" height="60" as="geometry"/>
                </mxCell>
                <mxCell id="LbXdY1UVprqNfGSTNRS2-51" value="" style="rounded=1;whiteSpace=wrap;html=1;arcSize=5;verticalAlign=top;fillColor=default;strokeColor=#6c8ebf;strokeWidth=2;" parent="1" vertex="1">
                    <mxGeometry x="-125" y="-47" width="160" height="277" as="geometry"/>
                </mxCell>
                <mxCell id="LbXdY1UVprqNfGSTNRS2-50" value="" style="rounded=1;whiteSpace=wrap;html=1;arcSize=5;verticalAlign=top;fillColor=default;strokeColor=#6c8ebf;strokeWidth=2;" parent="1" vertex="1">
                    <mxGeometry x="-134" y="-38" width="160" height="277" as="geometry"/>
                </mxCell>
                <mxCell id="LbXdY1UVprqNfGSTNRS2-49" value="" style="rounded=1;whiteSpace=wrap;html=1;arcSize=5;verticalAlign=top;strokeColor=#6c8ebf;strokeWidth=2;" parent="1" vertex="1">
                    <mxGeometry x="-106" y="291.5" width="100" height="60" as="geometry"/>
                </mxCell>
                <mxCell id="LbXdY1UVprqNfGSTNRS2-7" value="Внешние взаимодействия" style="rounded=1;whiteSpace=wrap;html=1;arcSize=3;verticalAlign=top;dashed=1;fontStyle=1;" parent="1" vertex="1">
                    <mxGeometry x="-450" y="-80" width="220" height="360" as="geometry"/>
                </mxCell>
                <mxCell id="LbXdY1UVprqNfGSTNRS2-2" value="Linux-сервер + JVM" style="rounded=1;whiteSpace=wrap;html=1;arcSize=5;verticalAlign=top;fillColor=default;strokeColor=#6c8ebf;strokeWidth=2;" parent="1" vertex="1">
                    <mxGeometry x="-144" y="-27" width="160" height="277" as="geometry"/>
                </mxCell>
                <mxCell id="LbXdY1UVprqNfGSTNRS2-23" value="" style="edgeStyle=orthogonalEdgeStyle;rounded=0;orthogonalLoop=1;jettySize=auto;html=1;exitX=-0.002;exitY=0.184;exitDx=0;exitDy=0;entryX=1;entryY=0.5;entryDx=0;entryDy=0;exitPerimeter=0;fillColor=#e51400;strokeColor=#B20000;" parent="1" source="LbXdY1UVprqNfGSTNRS2-3" target="LbXdY1UVprqNfGSTNRS2-8" edge="1">
                    <mxGeometry relative="1" as="geometry">
                        <Array as="points">
                            <mxPoint x="-202" y="29"/>
                        </Array>
                    </mxGeometry>
                </mxCell>
                <mxCell id="LbXdY1UVprqNfGSTNRS2-27" value="HTTP(S) + REST" style="edgeLabel;html=1;align=center;verticalAlign=middle;resizable=0;points=[];fontSize=10;" parent="LbXdY1UVprqNfGSTNRS2-23" vertex="1" connectable="0">
                    <mxGeometry x="0.6193" y="-2" relative="1" as="geometry">
                        <mxPoint x="33" y="-6" as="offset"/>
                    </mxGeometry>
                </mxCell>
                <mxCell id="LbXdY1UVprqNfGSTNRS2-25" value="" style="edgeStyle=orthogonalEdgeStyle;rounded=0;orthogonalLoop=1;jettySize=auto;html=1;exitX=0;exitY=0.5;exitDx=0;exitDy=0;strokeColor=default;fillColor=#e51400;startArrow=classic;startFill=1;endArrow=none;endFill=0;" parent="1" source="vAv96Uk13qiof5SyNgZs-1" target="LbXdY1UVprqNfGSTNRS2-15" edge="1">
                    <mxGeometry relative="1" as="geometry">
                        <mxPoint x="-133" y="70" as="sourcePoint"/>
                        <mxPoint x="-250" y="170" as="targetPoint"/>
                        <Array as="points"/>
                    </mxGeometry>
                </mxCell>
                <mxCell id="LbXdY1UVprqNfGSTNRS2-29" value="syslog" style="edgeLabel;html=1;align=center;verticalAlign=middle;resizable=0;points=[];fontSize=10;" parent="LbXdY1UVprqNfGSTNRS2-25" vertex="1" connectable="0">
                    <mxGeometry x="0.2935" y="2" relative="1" as="geometry">
                        <mxPoint x="80" y="-14" as="offset"/>
                    </mxGeometry>
                </mxCell>
                <mxCell id="LbXdY1UVprqNfGSTNRS2-26" value="" style="edgeStyle=orthogonalEdgeStyle;rounded=0;orthogonalLoop=1;jettySize=auto;html=1;strokeColor=#B20000;fillColor=#e51400;" parent="1" source="LbXdY1UVprqNfGSTNRS2-3" target="LbXdY1UVprqNfGSTNRS2-16" edge="1">
                    <mxGeometry relative="1" as="geometry"/>
                </mxCell>
                <mxCell id="LbXdY1UVprqNfGSTNRS2-28" value="HTTP(S) + REST" style="edgeLabel;html=1;align=center;verticalAlign=middle;resizable=0;points=[];fontSize=10;" parent="LbXdY1UVprqNfGSTNRS2-26" vertex="1" connectable="0">
                    <mxGeometry x="0.3944" relative="1" as="geometry">
                        <mxPoint x="19" y="-12" as="offset"/>
                    </mxGeometry>
                </mxCell>
                <mxCell id="LbXdY1UVprqNfGSTNRS2-3" value="Серверный узел DataGrid" style="rounded=1;whiteSpace=wrap;html=1;arcSize=5;verticalAlign=top;fillColor=#dae8fc;strokeColor=#6c8ebf;fontStyle=1" parent="1" vertex="1">
                    <mxGeometry x="-134" width="140" height="160" as="geometry"/>
                </mxCell>
                <mxCell id="LbXdY1UVprqNfGSTNRS2-20" value="" style="edgeStyle=orthogonalEdgeStyle;rounded=0;orthogonalLoop=1;jettySize=auto;html=1;entryX=0.155;entryY=1;entryDx=0;entryDy=0;entryPerimeter=0;exitX=0.313;exitY=-0.018;exitDx=0;exitDy=0;exitPerimeter=0;" parent="1" source="LbXdY1UVprqNfGSTNRS2-4" target="LbXdY1UVprqNfGSTNRS2-3" edge="1">
                    <mxGeometry relative="1" as="geometry">
                        <mxPoint x="-112" y="204" as="sourcePoint"/>
                    </mxGeometry>
                </mxCell>
                <mxCell id="LbXdY1UVprqNfGSTNRS2-34" value="JMX" style="edgeLabel;html=1;align=center;verticalAlign=middle;resizable=0;points=[];" parent="LbXdY1UVprqNfGSTNRS2-20" vertex="1" connectable="0">
                    <mxGeometry x="-0.1389" relative="1" as="geometry">
                        <mxPoint x="-13" y="9" as="offset"/>
                    </mxGeometry>
                </mxCell>
                <mxCell id="LbXdY1UVprqNfGSTNRS2-21" value="" style="edgeStyle=orthogonalEdgeStyle;rounded=0;orthogonalLoop=1;jettySize=auto;html=1;entryX=1;entryY=0.5;entryDx=0;entryDy=0;" parent="1" source="LbXdY1UVprqNfGSTNRS2-4" target="LbXdY1UVprqNfGSTNRS2-10" edge="1">
                    <mxGeometry relative="1" as="geometry"/>
                </mxCell>
                <mxCell id="LbXdY1UVprqNfGSTNRS2-30" value="TCP" style="edgeLabel;html=1;align=center;verticalAlign=middle;resizable=0;points=[];fontSize=10;" parent="LbXdY1UVprqNfGSTNRS2-21" vertex="1" connectable="0">
                    <mxGeometry x="0.348" y="1" relative="1" as="geometry">
                        <mxPoint x="13" y="-11" as="offset"/>
                    </mxGeometry>
                </mxCell>
                <mxCell id="LbXdY1UVprqNfGSTNRS2-4" value="&lt;font style=&quot;font-size: 10px;&quot;&gt;Zabbix-agent&lt;/font&gt;" style="rounded=1;whiteSpace=wrap;html=1;arcSize=5;verticalAlign=top;fillColor=none;strokeColor=#6c8ebf;" parent="1" vertex="1">
                    <mxGeometry x="-134" y="205" width="70" height="30" as="geometry"/>
                </mxCell>
                <mxCell id="LbXdY1UVprqNfGSTNRS2-8" value="Система хранения секретов&lt;br&gt;(SecMan)" style="rounded=1;whiteSpace=wrap;html=1;fillColor=#f5f5f5;fontColor=#333333;strokeColor=#666666;" parent="1" vertex="1">
                    <mxGeometry x="-430" y="10" width="180" height="40" as="geometry"/>
                </mxCell>
                <mxCell id="LbXdY1UVprqNfGSTNRS2-10" value="Система мониторинга&lt;br&gt;(Zabbix + Grafana)" style="rounded=1;whiteSpace=wrap;html=1;fillColor=#f5f5f5;fontColor=#333333;strokeColor=#666666;" parent="1" vertex="1">
                    <mxGeometry x="-430" y="200" width="180" height="40" as="geometry"/>
                </mxCell>
                <mxCell id="LbXdY1UVprqNfGSTNRS2-12" value="Linux-сервер + JVM" style="rounded=1;whiteSpace=wrap;html=1;arcSize=5;verticalAlign=top;strokeColor=#6c8ebf;strokeWidth=2;" parent="1" vertex="1">
                    <mxGeometry x="160" y="-40" width="140" height="90" as="geometry"/>
                </mxCell>
                <mxCell id="LbXdY1UVprqNfGSTNRS2-9" value="&lt;span style=&quot;color: rgb(0, 0, 0); font-size: 11px;&quot;&gt;Platform V Grid Center&lt;/span&gt;" style="rounded=1;whiteSpace=wrap;html=1;verticalAlign=top;fillColor=default;strokeColor=#6c8ebf;" parent="1" vertex="1">
                    <mxGeometry x="170" y="-10" width="120" height="50" as="geometry"/>
                </mxCell>
                <mxCell id="LbXdY1UVprqNfGSTNRS2-14" value="" style="edgeStyle=orthogonalEdgeStyle;rounded=0;orthogonalLoop=1;jettySize=auto;html=1;entryX=0.999;entryY=0.187;entryDx=0;entryDy=0;entryPerimeter=0;dashed=1;dashPattern=1 1;" parent="1" source="LbXdY1UVprqNfGSTNRS2-13" target="LbXdY1UVprqNfGSTNRS2-3" edge="1">
                    <mxGeometry relative="1" as="geometry">
                        <Array as="points"/>
                    </mxGeometry>
                </mxCell>
                <mxCell id="LbXdY1UVprqNfGSTNRS2-33" value="TLS + TCP" style="edgeLabel;html=1;align=center;verticalAlign=middle;resizable=0;points=[];fontSize=10;" parent="LbXdY1UVprqNfGSTNRS2-14" vertex="1" connectable="0">
                    <mxGeometry x="-0.1457" y="-2" relative="1" as="geometry">
                        <mxPoint x="-6" y="-8" as="offset"/>
                    </mxGeometry>
                </mxCell>
                <mxCell id="LbXdY1UVprqNfGSTNRS2-13" value="Тонкий клиент" style="rounded=1;whiteSpace=wrap;html=1;fontSize=10;fillColor=#dae8fc;strokeColor=#6c8ebf;" parent="1" vertex="1">
                    <mxGeometry x="170" y="20" width="90" height="20" as="geometry"/>
                </mxCell>
                <mxCell id="LbXdY1UVprqNfGSTNRS2-15" value="Система аудита (ПКБ)" style="rounded=1;whiteSpace=wrap;html=1;fillColor=#f5f5f5;fontColor=#333333;strokeColor=#666666;" parent="1" vertex="1">
                    <mxGeometry x="-430" y="110" width="180" height="40" as="geometry"/>
                </mxCell>
                <mxCell id="LbXdY1UVprqNfGSTNRS2-16" value="Система управления конфигурациями" style="rounded=1;whiteSpace=wrap;html=1;fillColor=#f5f5f5;fontColor=#333333;strokeColor=#666666;" parent="1" vertex="1">
                    <mxGeometry x="-430" y="60" width="180" height="40" as="geometry"/>
                </mxCell>
                <mxCell id="LbXdY1UVprqNfGSTNRS2-18" value="Linux-сервер + JVM" style="rounded=1;whiteSpace=wrap;html=1;arcSize=5;verticalAlign=top;strokeColor=#6c8ebf;strokeWidth=2;" parent="1" vertex="1">
                    <mxGeometry x="160" y="290" width="140" height="50" as="geometry"/>
                </mxCell>
                <mxCell id="LbXdY1UVprqNfGSTNRS2-17" value="Platform V Corax" style="shape=cylinder3;whiteSpace=wrap;html=1;boundedLbl=1;backgroundOutline=1;size=4.399993896484375;rotation=90;horizontal=0;fillColor=none;strokeColor=#6c8ebf;" parent="1" vertex="1">
                    <mxGeometry x="225" y="260" width="15" height="120" as="geometry"/>
                </mxCell>
                <mxCell id="LbXdY1UVprqNfGSTNRS2-37" value="" style="edgeStyle=orthogonalEdgeStyle;rounded=0;orthogonalLoop=1;jettySize=auto;html=1;entryX=0.5;entryY=1;entryDx=0;entryDy=0;entryPerimeter=0;exitX=0.5;exitY=1;exitDx=0;exitDy=0;dashed=1;dashPattern=1 1;" parent="1" source="LbXdY1UVprqNfGSTNRS2-35" target="LbXdY1UVprqNfGSTNRS2-17" edge="1">
                    <mxGeometry relative="1" as="geometry">
                        <Array as="points">
                            <mxPoint x="-27" y="320"/>
                        </Array>
                    </mxGeometry>
                </mxCell>
                <mxCell id="LbXdY1UVprqNfGSTNRS2-38" value="TLS + TCP" style="edgeLabel;html=1;align=center;verticalAlign=middle;resizable=0;points=[];fontSize=10;" parent="LbXdY1UVprqNfGSTNRS2-37" vertex="1" connectable="0">
                    <mxGeometry x="-0.4769" y="2" relative="1" as="geometry">
                        <mxPoint x="121" y="55" as="offset"/>
                    </mxGeometry>
                </mxCell>
                <mxCell id="LbXdY1UVprqNfGSTNRS2-35" value="CDC-репликация" style="rounded=1;whiteSpace=wrap;html=1;arcSize=5;verticalAlign=top;fontSize=10;fillColor=#dae8fc;strokeColor=#6c8ebf;" parent="1" vertex="1">
                    <mxGeometry x="-60" y="126" width="66" height="34" as="geometry"/>
                </mxCell>
                <mxCell id="LbXdY1UVprqNfGSTNRS2-39" value="Приложение-потребитель" style="rounded=1;whiteSpace=wrap;html=1;verticalAlign=top;fillColor=#f5f5f5;fontColor=#333333;strokeColor=#666666;" parent="1" vertex="1">
                    <mxGeometry x="-430" y="-50" width="180" height="50" as="geometry"/>
                </mxCell>
                <mxCell id="LbXdY1UVprqNfGSTNRS2-41" value="" style="edgeStyle=orthogonalEdgeStyle;rounded=0;orthogonalLoop=1;jettySize=auto;html=1;entryX=-0.001;entryY=0.082;entryDx=0;entryDy=0;entryPerimeter=0;" parent="1" source="LbXdY1UVprqNfGSTNRS2-40" target="LbXdY1UVprqNfGSTNRS2-3" edge="1">
                    <mxGeometry relative="1" as="geometry">
                        <Array as="points">
                            <mxPoint x="-170" y="-10"/>
                            <mxPoint x="-170" y="13"/>
                        </Array>
                    </mxGeometry>
                </mxCell>
                <mxCell id="LbXdY1UVprqNfGSTNRS2-42" value="TLS + TCP" style="edgeLabel;html=1;align=center;verticalAlign=middle;resizable=0;points=[];fontSize=10;" parent="LbXdY1UVprqNfGSTNRS2-41" vertex="1" connectable="0">
                    <mxGeometry x="-0.4653" y="2" relative="1" as="geometry">
                        <mxPoint x="13" y="-8" as="offset"/>
                    </mxGeometry>
                </mxCell>
                <mxCell id="LbXdY1UVprqNfGSTNRS2-40" value="Тонкий или толстый клиент" style="rounded=1;whiteSpace=wrap;html=1;fontSize=10;fillColor=#dae8fc;strokeColor=#6c8ebf;" parent="1" vertex="1">
                    <mxGeometry x="-390" y="-20" width="140" height="20" as="geometry"/>
                </mxCell>
                <mxCell id="LbXdY1UVprqNfGSTNRS2-43" value="&lt;font style=&quot;font-size: 10px;&quot;&gt;Linux-сервер + JVM&lt;/font&gt;" style="rounded=1;whiteSpace=wrap;html=1;arcSize=5;verticalAlign=top;strokeColor=#6c8ebf;strokeWidth=2;" parent="1" vertex="1">
                    <mxGeometry x="-120" y="283.5" width="100" height="60" as="geometry"/>
                </mxCell>
                <mxCell id="LbXdY1UVprqNfGSTNRS2-44" value="ZooKeeper" style="rounded=1;whiteSpace=wrap;html=1;verticalAlign=top;fontSize=10;fillColor=none;strokeColor=#6c8ebf;" parent="1" vertex="1">
                    <mxGeometry x="-105" y="306.75" width="70" height="26.75" as="geometry"/>
                </mxCell>
                <mxCell id="LbXdY1UVprqNfGSTNRS2-45" value="" style="edgeStyle=orthogonalEdgeStyle;rounded=0;orthogonalLoop=1;jettySize=auto;html=1;exitX=0;exitY=0.75;exitDx=0;exitDy=0;entryX=0;entryY=0.5;entryDx=0;entryDy=0;startArrow=classic;startFill=1;" parent="1" source="LbXdY1UVprqNfGSTNRS2-3" target="LbXdY1UVprqNfGSTNRS2-44" edge="1">
                    <mxGeometry relative="1" as="geometry">
                        <mxPoint x="16" y="120" as="sourcePoint"/>
                        <mxPoint x="255" y="240" as="targetPoint"/>
                        <Array as="points">
                            <mxPoint x="-170" y="120"/>
                            <mxPoint x="-170" y="320"/>
                        </Array>
                    </mxGeometry>
                </mxCell>
                <mxCell id="LbXdY1UVprqNfGSTNRS2-46" value="TLS + TCP" style="edgeLabel;html=1;align=center;verticalAlign=middle;resizable=0;points=[];fontSize=10;" parent="LbXdY1UVprqNfGSTNRS2-45" vertex="1" connectable="0">
                    <mxGeometry x="-0.4769" y="2" relative="1" as="geometry">
                        <mxPoint x="-32" y="121" as="offset"/>
                    </mxGeometry>
                </mxCell>
                <mxCell id="LbXdY1UVprqNfGSTNRS2-52" value="Персистентное хранилище" style="rounded=1;whiteSpace=wrap;html=1;arcSize=5;verticalAlign=top;dashed=1;fontStyle=1" parent="1" vertex="1">
                    <mxGeometry x="140" y="61.5" width="180" height="100" as="geometry"/>
                </mxCell>
                <mxCell id="LbXdY1UVprqNfGSTNRS2-54" value="Linux-сервер" style="rounded=1;whiteSpace=wrap;html=1;arcSize=5;verticalAlign=top;strokeColor=#6c8ebf;strokeWidth=2;" parent="1" vertex="1">
                    <mxGeometry x="160" y="91.5" width="140" height="58" as="geometry"/>
                </mxCell>
                <mxCell id="LbXdY1UVprqNfGSTNRS2-53" value="FS / DB" style="shape=cylinder3;whiteSpace=wrap;html=1;boundedLbl=1;backgroundOutline=1;size=2.79998779296875;fontSize=10;fillColor=none;strokeColor=#6c8ebf;" parent="1" vertex="1">
                    <mxGeometry x="170" y="114.5" width="120" height="30" as="geometry"/>
                </mxCell>
                <mxCell id="LbXdY1UVprqNfGSTNRS2-55" value="" style="edgeStyle=orthogonalEdgeStyle;rounded=0;orthogonalLoop=1;jettySize=auto;html=1;entryX=1.003;entryY=0.326;entryDx=0;entryDy=0;entryPerimeter=0;" parent="1" target="LbXdY1UVprqNfGSTNRS2-50" edge="1">
                    <mxGeometry relative="1" as="geometry">
                        <mxPoint x="6" y="65" as="sourcePoint"/>
                        <mxPoint x="170" y="127" as="targetPoint"/>
                        <Array as="points">
                            <mxPoint x="70" y="65"/>
                            <mxPoint x="70" y="52"/>
                        </Array>
                    </mxGeometry>
                </mxCell>
                <mxCell id="LbXdY1UVprqNfGSTNRS2-56" value="TLS + TCP" style="edgeLabel;html=1;align=center;verticalAlign=middle;resizable=0;points=[];fontSize=10;" parent="LbXdY1UVprqNfGSTNRS2-55" vertex="1" connectable="0">
                    <mxGeometry x="-0.4769" y="2" relative="1" as="geometry">
                        <mxPoint x="63" y="-3" as="offset"/>
                    </mxGeometry>
                </mxCell>
                <mxCell id="LbXdY1UVprqNfGSTNRS2-57" value="" style="edgeStyle=orthogonalEdgeStyle;rounded=0;orthogonalLoop=1;jettySize=auto;html=1;exitX=0.994;exitY=0.638;exitDx=0;exitDy=0;entryX=0;entryY=0.5;entryDx=0;entryDy=0;entryPerimeter=0;exitPerimeter=0;fillColor=#0050ef;strokeColor=#001DBC;dashed=1;dashPattern=1 1;" parent="1" source="LbXdY1UVprqNfGSTNRS2-3" target="LbXdY1UVprqNfGSTNRS2-53" edge="1">
                    <mxGeometry relative="1" as="geometry">
                        <mxPoint x="16" y="90" as="sourcePoint"/>
                        <mxPoint x="170" y="127" as="targetPoint"/>
                        <Array as="points">
                            <mxPoint x="50" y="102"/>
                            <mxPoint x="50" y="130"/>
                        </Array>
                    </mxGeometry>
                </mxCell>
                <mxCell id="LbXdY1UVprqNfGSTNRS2-58" value="Native,&lt;br&gt;JDBC, ODBC" style="edgeLabel;html=1;align=center;verticalAlign=middle;resizable=0;points=[];fontSize=10;" parent="LbXdY1UVprqNfGSTNRS2-57" vertex="1" connectable="0">
                    <mxGeometry x="-0.4769" y="2" relative="1" as="geometry">
                        <mxPoint x="42" y="5" as="offset"/>
                    </mxGeometry>
                </mxCell>
                <mxCell id="vsAG4Ktqe58QafRFDLfM-2" value="" style="rounded=1;whiteSpace=wrap;html=1;verticalAlign=top;strokeColor=#6c8ebf;arcSize=42;strokeWidth=2;" parent="1" vertex="1">
                    <mxGeometry x="-450" y="392.5" width="50" height="20" as="geometry"/>
                </mxCell>
                <mxCell id="vsAG4Ktqe58QafRFDLfM-3" value="" style="rounded=1;whiteSpace=wrap;html=1;verticalAlign=top;strokeColor=default;arcSize=42;strokeWidth=1;dashed=1;" parent="1" vertex="1">
                    <mxGeometry x="-450" y="360" width="50" height="20" as="geometry"/>
                </mxCell>
                <mxCell id="vsAG4Ktqe58QafRFDLfM-4" value="" style="rounded=1;whiteSpace=wrap;html=1;verticalAlign=top;strokeColor=#6c8ebf;arcSize=42;strokeWidth=1;fillColor=#dae8fc;" parent="1" vertex="1">
                    <mxGeometry x="-450" y="422.5" width="50" height="20" as="geometry"/>
                </mxCell>
                <mxCell id="vsAG4Ktqe58QafRFDLfM-5" value="" style="rounded=1;whiteSpace=wrap;html=1;verticalAlign=top;strokeColor=#6c8ebf;arcSize=42;strokeWidth=1;" parent="1" vertex="1">
                    <mxGeometry x="-450" y="452.5" width="50" height="20" as="geometry"/>
                </mxCell>
                <mxCell id="vsAG4Ktqe58QafRFDLfM-6" value="Логический блок" style="text;html=1;strokeColor=none;fillColor=none;align=left;verticalAlign=middle;whiteSpace=wrap;rounded=0;" parent="1" vertex="1">
                    <mxGeometry x="-390" y="355" width="190" height="30" as="geometry"/>
                </mxCell>
                <mxCell id="vsAG4Ktqe58QafRFDLfM-7" value="Сервер развертывания" style="text;html=1;strokeColor=none;fillColor=none;align=left;verticalAlign=middle;whiteSpace=wrap;rounded=0;" parent="1" vertex="1">
                    <mxGeometry x="-389" y="385.5" width="189" height="30" as="geometry"/>
                </mxCell>
                <mxCell id="vsAG4Ktqe58QafRFDLfM-8" value="Компонент DataGrid" style="text;html=1;strokeColor=none;fillColor=none;align=left;verticalAlign=middle;whiteSpace=wrap;rounded=0;" parent="1" vertex="1">
                    <mxGeometry x="-389" y="415.5" width="189" height="30" as="geometry"/>
                </mxCell>
                <mxCell id="vsAG4Ktqe58QafRFDLfM-10" value="Дополнительный компонент" style="text;html=1;strokeColor=none;fillColor=none;align=left;verticalAlign=middle;whiteSpace=wrap;rounded=0;" parent="1" vertex="1">
                    <mxGeometry x="-389" y="445.5" width="189" height="30" as="geometry"/>
                </mxCell>
                <mxCell id="vsAG4Ktqe58QafRFDLfM-11" value="" style="endArrow=classic;html=1;rounded=0;" parent="1" edge="1">
                    <mxGeometry width="50" height="50" relative="1" as="geometry">
                        <mxPoint x="-160" y="400.71" as="sourcePoint"/>
                        <mxPoint x="-120" y="400.71" as="targetPoint"/>
                    </mxGeometry>
                </mxCell>
                <mxCell id="vsAG4Ktqe58QafRFDLfM-12" value="Взаимодействие TCP" style="text;html=1;strokeColor=none;fillColor=none;align=left;verticalAlign=middle;whiteSpace=wrap;rounded=0;" parent="1" vertex="1">
                    <mxGeometry x="-110" y="386.5" width="190" height="30" as="geometry"/>
                </mxCell>
                <mxCell id="vsAG4Ktqe58QafRFDLfM-13" value="" style="endArrow=classic;html=1;rounded=0;strokeColor=#B20000;fillColor=#e51400;" parent="1" edge="1">
                    <mxGeometry width="50" height="50" relative="1" as="geometry">
                        <mxPoint x="-160" y="432.71" as="sourcePoint"/>
                        <mxPoint x="-120" y="432.71" as="targetPoint"/>
                    </mxGeometry>
                </mxCell>
                <mxCell id="vsAG4Ktqe58QafRFDLfM-14" value="Взаимодействие HTTP(S)" style="text;html=1;strokeColor=none;fillColor=none;align=left;verticalAlign=middle;whiteSpace=wrap;rounded=0;" parent="1" vertex="1">
                    <mxGeometry x="-110" y="418.5" width="190" height="30" as="geometry"/>
                </mxCell>
                <mxCell id="vsAG4Ktqe58QafRFDLfM-15" value="" style="endArrow=classic;html=1;rounded=0;strokeColor=#001DBC;fillColor=#0050ef;" parent="1" edge="1">
                    <mxGeometry width="50" height="50" relative="1" as="geometry">
                        <mxPoint x="-160" y="462.71" as="sourcePoint"/>
                        <mxPoint x="-120" y="462.71" as="targetPoint"/>
                    </mxGeometry>
                </mxCell>
                <mxCell id="vsAG4Ktqe58QafRFDLfM-16" value="Взаимодействие JDBC" style="text;html=1;strokeColor=none;fillColor=none;align=left;verticalAlign=middle;whiteSpace=wrap;rounded=0;" parent="1" vertex="1">
                    <mxGeometry x="-110" y="448.5" width="190" height="30" as="geometry"/>
                </mxCell>
                <mxCell id="vAv96Uk13qiof5SyNgZs-1" value="&lt;font style=&quot;font-size: 10px;&quot;&gt;rsyslog&lt;/font&gt;" style="rounded=1;whiteSpace=wrap;html=1;arcSize=5;verticalAlign=top;fillColor=none;strokeColor=#6c8ebf;" parent="1" vertex="1">
                    <mxGeometry x="-103" y="169" width="70" height="30" as="geometry"/>
                </mxCell>
                <mxCell id="vAv96Uk13qiof5SyNgZs-2" value="" style="endArrow=classic;html=1;rounded=0;exitX=0.5;exitY=1;exitDx=0;exitDy=0;entryX=0.559;entryY=-0.027;entryDx=0;entryDy=0;entryPerimeter=0;" parent="1" source="LbXdY1UVprqNfGSTNRS2-3" target="vAv96Uk13qiof5SyNgZs-1" edge="1">
                    <mxGeometry width="50" height="50" relative="1" as="geometry">
                        <mxPoint x="-130" y="200" as="sourcePoint"/>
                        <mxPoint x="-80" y="150" as="targetPoint"/>
                    </mxGeometry>
                </mxCell>
                <mxCell id="vAv96Uk13qiof5SyNgZs-3" value="" style="edgeStyle=orthogonalEdgeStyle;rounded=0;orthogonalLoop=1;jettySize=auto;html=1;strokeColor=default;fillColor=#e51400;" parent="1" edge="1">
                    <mxGeometry relative="1" as="geometry">
                        <mxPoint x="-134" y="129.67000000000002" as="sourcePoint"/>
                        <mxPoint x="-250" y="129.67000000000002" as="targetPoint"/>
                    </mxGeometry>
                </mxCell>
                <mxCell id="vAv96Uk13qiof5SyNgZs-4" value="TLS + TCP" style="edgeLabel;html=1;align=center;verticalAlign=middle;resizable=0;points=[];fontSize=10;" parent="vAv96Uk13qiof5SyNgZs-3" vertex="1" connectable="0">
                    <mxGeometry x="0.3944" relative="1" as="geometry">
                        <mxPoint x="19" y="-12" as="offset"/>
                    </mxGeometry>
                </mxCell>
                <mxCell id="2" value="" style="rounded=1;whiteSpace=wrap;html=1;fillColor=#f5f5f5;fontColor=#333333;strokeColor=#666666;" parent="1" vertex="1">
                    <mxGeometry x="-450" y="485" width="50" height="20" as="geometry"/>
                </mxCell>
                <mxCell id="3" value="&lt;span style=&quot;color: rgb(0, 0, 0); font-family: Helvetica; font-size: 12px; font-style: normal; font-variant-ligatures: normal; font-variant-caps: normal; font-weight: 400; letter-spacing: normal; orphans: 2; text-align: left; text-indent: 0px; text-transform: none; widows: 2; word-spacing: 0px; -webkit-text-stroke-width: 0px; white-space: normal; background-color: rgb(255, 255, 255); text-decoration-thickness: initial; text-decoration-style: initial; text-decoration-color: initial; float: none; display: inline !important;&quot;&gt;Внешние сервисы&lt;/span&gt;" style="text;whiteSpace=wrap;html=1;" parent="1" vertex="1">
                    <mxGeometry x="-390" y="480" width="180" height="40" as="geometry"/>
                </mxCell>
            </root>
        </mxGraphModel>
    </diagram>
</mxfile>